<mxfile host="app.diagrams.net" agent="Mozilla/5.0 (Windows NT 10.0; Win64; x64) AppleWebKit/537.36 (KHTML, like Gecko) Chrome/139.0.0.0 Safari/537.36 Edg/139.0.0.0" version="28.1.2">
  <diagram id="C5RBs43oDa-KdzZeNtuy" name="Page-1">
    <mxGraphModel dx="3275" dy="929" grid="1" gridSize="10" guides="1" tooltips="1" connect="1" arrows="1" fold="1" page="1" pageScale="1" pageWidth="827" pageHeight="1169" math="0" shadow="0">
      <root>
        <mxCell id="WIyWlLk6GJQsqaUBKTNV-0" />
        <mxCell id="WIyWlLk6GJQsqaUBKTNV-1" parent="WIyWlLk6GJQsqaUBKTNV-0" />
        <mxCell id="wvnl2PtTV5zYkJV1DuqI-26" style="edgeStyle=orthogonalEdgeStyle;shape=connector;rounded=0;orthogonalLoop=1;jettySize=auto;html=1;exitX=1;exitY=0.5;exitDx=0;exitDy=0;entryX=0;entryY=0.5;entryDx=0;entryDy=0;strokeColor=default;align=center;verticalAlign=middle;fontFamily=Helvetica;fontSize=11;fontColor=default;labelBackgroundColor=default;endArrow=none;endFill=0;" parent="WIyWlLk6GJQsqaUBKTNV-1" source="wvnl2PtTV5zYkJV1DuqI-31" target="wvnl2PtTV5zYkJV1DuqI-1" edge="1">
          <mxGeometry relative="1" as="geometry" />
        </mxCell>
        <mxCell id="9lHl1m840VJ-pq4PB7hQ-25" value="m" style="edgeLabel;html=1;align=center;verticalAlign=middle;resizable=0;points=[];fontFamily=Helvetica;fontSize=11;fontColor=default;labelBackgroundColor=default;" vertex="1" connectable="0" parent="wvnl2PtTV5zYkJV1DuqI-26">
          <mxGeometry x="0.7939" relative="1" as="geometry">
            <mxPoint as="offset" />
          </mxGeometry>
        </mxCell>
        <mxCell id="wvnl2PtTV5zYkJV1DuqI-27" style="edgeStyle=orthogonalEdgeStyle;shape=connector;rounded=0;orthogonalLoop=1;jettySize=auto;html=1;exitX=0.5;exitY=1;exitDx=0;exitDy=0;strokeColor=default;align=center;verticalAlign=middle;fontFamily=Helvetica;fontSize=11;fontColor=default;labelBackgroundColor=default;endArrow=none;endFill=0;" parent="WIyWlLk6GJQsqaUBKTNV-1" source="wvnl2PtTV5zYkJV1DuqI-35" edge="1">
          <mxGeometry relative="1" as="geometry">
            <mxPoint x="-260" y="780" as="targetPoint" />
          </mxGeometry>
        </mxCell>
        <mxCell id="9lHl1m840VJ-pq4PB7hQ-20" value="1" style="edgeLabel;html=1;align=center;verticalAlign=middle;resizable=0;points=[];fontFamily=Helvetica;fontSize=11;fontColor=default;labelBackgroundColor=default;" vertex="1" connectable="0" parent="wvnl2PtTV5zYkJV1DuqI-27">
          <mxGeometry x="0.7224" y="-3" relative="1" as="geometry">
            <mxPoint y="-1" as="offset" />
          </mxGeometry>
        </mxCell>
        <mxCell id="wvnl2PtTV5zYkJV1DuqI-28" style="edgeStyle=orthogonalEdgeStyle;shape=connector;rounded=0;orthogonalLoop=1;jettySize=auto;html=1;exitX=1;exitY=0.5;exitDx=0;exitDy=0;entryX=0;entryY=0.5;entryDx=0;entryDy=0;strokeColor=default;align=center;verticalAlign=middle;fontFamily=Helvetica;fontSize=11;fontColor=default;labelBackgroundColor=default;endArrow=none;endFill=0;" parent="WIyWlLk6GJQsqaUBKTNV-1" source="wvnl2PtTV5zYkJV1DuqI-34" target="wvnl2PtTV5zYkJV1DuqI-4" edge="1">
          <mxGeometry relative="1" as="geometry" />
        </mxCell>
        <mxCell id="9lHl1m840VJ-pq4PB7hQ-27" value="m" style="edgeLabel;html=1;align=center;verticalAlign=middle;resizable=0;points=[];fontFamily=Helvetica;fontSize=11;fontColor=default;labelBackgroundColor=default;" vertex="1" connectable="0" parent="wvnl2PtTV5zYkJV1DuqI-28">
          <mxGeometry x="0.8866" y="-4" relative="1" as="geometry">
            <mxPoint as="offset" />
          </mxGeometry>
        </mxCell>
        <mxCell id="wvnl2PtTV5zYkJV1DuqI-29" style="edgeStyle=orthogonalEdgeStyle;shape=connector;rounded=0;orthogonalLoop=1;jettySize=auto;html=1;exitX=1;exitY=0.5;exitDx=0;exitDy=0;entryX=0;entryY=0.5;entryDx=0;entryDy=0;strokeColor=default;align=center;verticalAlign=middle;fontFamily=Helvetica;fontSize=11;fontColor=default;labelBackgroundColor=default;endArrow=none;endFill=0;" parent="WIyWlLk6GJQsqaUBKTNV-1" source="wvnl2PtTV5zYkJV1DuqI-39" target="wvnl2PtTV5zYkJV1DuqI-3" edge="1">
          <mxGeometry relative="1" as="geometry" />
        </mxCell>
        <mxCell id="9lHl1m840VJ-pq4PB7hQ-17" value="m" style="edgeLabel;html=1;align=center;verticalAlign=middle;resizable=0;points=[];fontFamily=Helvetica;fontSize=11;fontColor=default;labelBackgroundColor=default;" vertex="1" connectable="0" parent="wvnl2PtTV5zYkJV1DuqI-29">
          <mxGeometry x="0.6476" y="-2" relative="1" as="geometry">
            <mxPoint as="offset" />
          </mxGeometry>
        </mxCell>
        <mxCell id="wvnl2PtTV5zYkJV1DuqI-30" style="edgeStyle=orthogonalEdgeStyle;shape=connector;rounded=0;orthogonalLoop=1;jettySize=auto;html=1;entryX=0;entryY=0.5;entryDx=0;entryDy=0;strokeColor=default;align=center;verticalAlign=middle;fontFamily=Helvetica;fontSize=11;fontColor=default;labelBackgroundColor=default;endArrow=none;endFill=0;exitX=1;exitY=1;exitDx=0;exitDy=0;" parent="WIyWlLk6GJQsqaUBKTNV-1" source="WIyWlLk6GJQsqaUBKTNV-3" target="wvnl2PtTV5zYkJV1DuqI-5" edge="1">
          <mxGeometry relative="1" as="geometry">
            <mxPoint x="-230" y="490" as="sourcePoint" />
          </mxGeometry>
        </mxCell>
        <mxCell id="9lHl1m840VJ-pq4PB7hQ-28" value="1" style="edgeLabel;html=1;align=center;verticalAlign=middle;resizable=0;points=[];fontFamily=Helvetica;fontSize=11;fontColor=default;labelBackgroundColor=default;" vertex="1" connectable="0" parent="wvnl2PtTV5zYkJV1DuqI-30">
          <mxGeometry x="-0.9645" relative="1" as="geometry">
            <mxPoint as="offset" />
          </mxGeometry>
        </mxCell>
        <mxCell id="9lHl1m840VJ-pq4PB7hQ-29" value="n" style="edgeLabel;html=1;align=center;verticalAlign=middle;resizable=0;points=[];fontFamily=Helvetica;fontSize=11;fontColor=default;labelBackgroundColor=default;" vertex="1" connectable="0" parent="wvnl2PtTV5zYkJV1DuqI-30">
          <mxGeometry x="0.9289" y="-4" relative="1" as="geometry">
            <mxPoint as="offset" />
          </mxGeometry>
        </mxCell>
        <mxCell id="9lHl1m840VJ-pq4PB7hQ-4" style="rounded=0;orthogonalLoop=1;jettySize=auto;html=1;exitX=0.25;exitY=1;exitDx=0;exitDy=0;entryX=1;entryY=0.5;entryDx=0;entryDy=0;edgeStyle=orthogonalEdgeStyle;endArrow=none;endFill=0;" edge="1" parent="WIyWlLk6GJQsqaUBKTNV-1" source="WIyWlLk6GJQsqaUBKTNV-3" target="9lHl1m840VJ-pq4PB7hQ-3">
          <mxGeometry relative="1" as="geometry" />
        </mxCell>
        <mxCell id="9lHl1m840VJ-pq4PB7hQ-18" value="n" style="edgeLabel;html=1;align=center;verticalAlign=middle;resizable=0;points=[];fontFamily=Helvetica;fontSize=11;fontColor=default;labelBackgroundColor=default;" vertex="1" connectable="0" parent="9lHl1m840VJ-pq4PB7hQ-4">
          <mxGeometry x="-0.8221" relative="1" as="geometry">
            <mxPoint as="offset" />
          </mxGeometry>
        </mxCell>
        <mxCell id="9lHl1m840VJ-pq4PB7hQ-9" style="edgeStyle=orthogonalEdgeStyle;shape=connector;rounded=0;orthogonalLoop=1;jettySize=auto;html=1;exitX=0.75;exitY=1;exitDx=0;exitDy=0;entryX=0.5;entryY=0;entryDx=0;entryDy=0;strokeColor=default;align=center;verticalAlign=middle;fontFamily=Helvetica;fontSize=11;fontColor=default;labelBackgroundColor=default;endArrow=none;endFill=0;" edge="1" parent="WIyWlLk6GJQsqaUBKTNV-1" source="WIyWlLk6GJQsqaUBKTNV-3" target="9lHl1m840VJ-pq4PB7hQ-8">
          <mxGeometry relative="1" as="geometry" />
        </mxCell>
        <mxCell id="9lHl1m840VJ-pq4PB7hQ-22" value="n" style="edgeLabel;html=1;align=center;verticalAlign=middle;resizable=0;points=[];fontFamily=Helvetica;fontSize=11;fontColor=default;labelBackgroundColor=default;" vertex="1" connectable="0" parent="9lHl1m840VJ-pq4PB7hQ-9">
          <mxGeometry x="-0.8407" relative="1" as="geometry">
            <mxPoint as="offset" />
          </mxGeometry>
        </mxCell>
        <mxCell id="WIyWlLk6GJQsqaUBKTNV-3" value="Nutzer" style="rounded=0;whiteSpace=wrap;html=1;fontSize=12;glass=0;strokeWidth=1;shadow=0;" parent="WIyWlLk6GJQsqaUBKTNV-1" vertex="1">
          <mxGeometry x="-320" y="440" width="120" height="50" as="geometry" />
        </mxCell>
        <mxCell id="wvnl2PtTV5zYkJV1DuqI-0" value="Geschlecht" style="rounded=0;whiteSpace=wrap;html=1;fontSize=12;glass=0;strokeWidth=1;shadow=0;" parent="WIyWlLk6GJQsqaUBKTNV-1" vertex="1">
          <mxGeometry x="-260" y="780" width="120" height="40" as="geometry" />
        </mxCell>
        <mxCell id="wvnl2PtTV5zYkJV1DuqI-1" value="Likes" style="rounded=0;whiteSpace=wrap;html=1;fontSize=12;glass=0;strokeWidth=1;shadow=0;" parent="WIyWlLk6GJQsqaUBKTNV-1" vertex="1">
          <mxGeometry x="-70" y="210" width="120" height="40" as="geometry" />
        </mxCell>
        <mxCell id="wvnl2PtTV5zYkJV1DuqI-3" value="Hobby" style="rounded=0;whiteSpace=wrap;html=1;fontSize=12;glass=0;strokeWidth=1;shadow=0;" parent="WIyWlLk6GJQsqaUBKTNV-1" vertex="1">
          <mxGeometry x="-760" y="550" width="120" height="40" as="geometry" />
        </mxCell>
        <mxCell id="wvnl2PtTV5zYkJV1DuqI-4" value="Messages" style="rounded=0;whiteSpace=wrap;html=1;fontSize=12;glass=0;strokeWidth=1;shadow=0;" parent="WIyWlLk6GJQsqaUBKTNV-1" vertex="1">
          <mxGeometry x="350" y="210" width="120" height="40" as="geometry" />
        </mxCell>
        <mxCell id="wvnl2PtTV5zYkJV1DuqI-5" value="Bild" style="rounded=0;whiteSpace=wrap;html=1;fontSize=12;glass=0;strokeWidth=1;shadow=0;" parent="WIyWlLk6GJQsqaUBKTNV-1" vertex="1">
          <mxGeometry x="349" y="440" width="120" height="40" as="geometry" />
        </mxCell>
        <mxCell id="wvnl2PtTV5zYkJV1DuqI-11" style="rounded=0;orthogonalLoop=1;jettySize=auto;html=1;exitX=1;exitY=1;exitDx=0;exitDy=0;entryX=0.25;entryY=0;entryDx=0;entryDy=0;endArrow=none;endFill=0;" parent="WIyWlLk6GJQsqaUBKTNV-1" source="wvnl2PtTV5zYkJV1DuqI-9" target="WIyWlLk6GJQsqaUBKTNV-3" edge="1">
          <mxGeometry relative="1" as="geometry" />
        </mxCell>
        <mxCell id="wvnl2PtTV5zYkJV1DuqI-9" value="&lt;u&gt;ID&lt;/u&gt;, Vorname, Nachname, StraÃŸe, Hausnummer, Postleitzahl, Ort, Telefonnummer, Geburtsdatum, E-Mail-Adresse, createdAt, updatedAt" style="ellipse;whiteSpace=wrap;html=1;" parent="WIyWlLk6GJQsqaUBKTNV-1" vertex="1">
          <mxGeometry x="-660" y="140" width="430" height="90" as="geometry" />
        </mxCell>
        <mxCell id="wvnl2PtTV5zYkJV1DuqI-20" style="rounded=0;orthogonalLoop=1;jettySize=auto;html=1;exitX=0.5;exitY=1;exitDx=0;exitDy=0;entryX=0.25;entryY=0;entryDx=0;entryDy=0;endArrow=none;endFill=0;" parent="WIyWlLk6GJQsqaUBKTNV-1" source="wvnl2PtTV5zYkJV1DuqI-12" target="wvnl2PtTV5zYkJV1DuqI-1" edge="1">
          <mxGeometry relative="1" as="geometry" />
        </mxCell>
        <mxCell id="wvnl2PtTV5zYkJV1DuqI-12" value="&lt;u&gt;ID&lt;/u&gt;, liked_email, status, timestamp" style="ellipse;whiteSpace=wrap;html=1;" parent="WIyWlLk6GJQsqaUBKTNV-1" vertex="1">
          <mxGeometry x="-120" y="80" width="120" height="80" as="geometry" />
        </mxCell>
        <mxCell id="wvnl2PtTV5zYkJV1DuqI-14" value="&lt;u&gt;ID&lt;/u&gt;, GeschlechtsidentitÃ¤ten" style="ellipse;whiteSpace=wrap;html=1;" parent="WIyWlLk6GJQsqaUBKTNV-1" vertex="1">
          <mxGeometry x="-340" y="840" width="160" height="80" as="geometry" />
        </mxCell>
        <mxCell id="wvnl2PtTV5zYkJV1DuqI-15" value="&lt;u&gt;ID&lt;/u&gt;, receiver_email, content, timestamp" style="ellipse;whiteSpace=wrap;html=1;" parent="WIyWlLk6GJQsqaUBKTNV-1" vertex="1">
          <mxGeometry x="520" y="90" width="170" height="80" as="geometry" />
        </mxCell>
        <mxCell id="wvnl2PtTV5zYkJV1DuqI-23" style="edgeStyle=none;shape=connector;rounded=0;orthogonalLoop=1;jettySize=auto;html=1;exitX=0.5;exitY=0;exitDx=0;exitDy=0;strokeColor=default;align=center;verticalAlign=middle;fontFamily=Helvetica;fontSize=11;fontColor=default;labelBackgroundColor=default;endArrow=none;endFill=0;" parent="WIyWlLk6GJQsqaUBKTNV-1" source="wvnl2PtTV5zYkJV1DuqI-16" edge="1">
          <mxGeometry relative="1" as="geometry">
            <mxPoint x="-750" y="590" as="targetPoint" />
          </mxGeometry>
        </mxCell>
        <mxCell id="wvnl2PtTV5zYkJV1DuqI-16" value="&lt;u&gt;ID&lt;/u&gt;, Hobbyname" style="ellipse;whiteSpace=wrap;html=1;" parent="WIyWlLk6GJQsqaUBKTNV-1" vertex="1">
          <mxGeometry x="-880" y="620" width="120" height="80" as="geometry" />
        </mxCell>
        <mxCell id="wvnl2PtTV5zYkJV1DuqI-22" style="rounded=0;orthogonalLoop=1;jettySize=auto;html=1;exitX=0.5;exitY=1;exitDx=0;exitDy=0;entryX=0.75;entryY=0;entryDx=0;entryDy=0;endArrow=none;endFill=0;" parent="WIyWlLk6GJQsqaUBKTNV-1" source="wvnl2PtTV5zYkJV1DuqI-17" target="wvnl2PtTV5zYkJV1DuqI-5" edge="1">
          <mxGeometry relative="1" as="geometry" />
        </mxCell>
        <mxCell id="wvnl2PtTV5zYkJV1DuqI-17" value="&lt;u&gt;ID&lt;/u&gt;, BLOB_Datei, istProfilbild, Link" style="ellipse;whiteSpace=wrap;html=1;" parent="WIyWlLk6GJQsqaUBKTNV-1" vertex="1">
          <mxGeometry x="545" y="340" width="120" height="80" as="geometry" />
        </mxCell>
        <mxCell id="wvnl2PtTV5zYkJV1DuqI-21" style="rounded=0;orthogonalLoop=1;jettySize=auto;html=1;exitX=0.5;exitY=1;exitDx=0;exitDy=0;entryX=0.861;entryY=-0.042;entryDx=0;entryDy=0;entryPerimeter=0;endArrow=none;endFill=0;" parent="WIyWlLk6GJQsqaUBKTNV-1" source="wvnl2PtTV5zYkJV1DuqI-15" target="wvnl2PtTV5zYkJV1DuqI-4" edge="1">
          <mxGeometry relative="1" as="geometry" />
        </mxCell>
        <mxCell id="wvnl2PtTV5zYkJV1DuqI-24" style="edgeStyle=none;shape=connector;rounded=0;orthogonalLoop=1;jettySize=auto;html=1;exitX=1;exitY=0;exitDx=0;exitDy=0;entryX=0.424;entryY=0.917;entryDx=0;entryDy=0;entryPerimeter=0;strokeColor=default;align=center;verticalAlign=middle;fontFamily=Helvetica;fontSize=11;fontColor=default;labelBackgroundColor=default;endArrow=none;endFill=0;" parent="WIyWlLk6GJQsqaUBKTNV-1" source="wvnl2PtTV5zYkJV1DuqI-14" target="wvnl2PtTV5zYkJV1DuqI-0" edge="1">
          <mxGeometry relative="1" as="geometry" />
        </mxCell>
        <mxCell id="wvnl2PtTV5zYkJV1DuqI-49" style="edgeStyle=orthogonalEdgeStyle;shape=connector;rounded=0;orthogonalLoop=1;jettySize=auto;html=1;exitX=0.5;exitY=0;exitDx=0;exitDy=0;entryX=0;entryY=0;entryDx=0;entryDy=0;strokeColor=default;align=center;verticalAlign=middle;fontFamily=Helvetica;fontSize=11;fontColor=default;labelBackgroundColor=default;endArrow=none;endFill=0;" parent="WIyWlLk6GJQsqaUBKTNV-1" source="wvnl2PtTV5zYkJV1DuqI-25" target="WIyWlLk6GJQsqaUBKTNV-3" edge="1">
          <mxGeometry relative="1" as="geometry" />
        </mxCell>
        <mxCell id="9lHl1m840VJ-pq4PB7hQ-12" value="n" style="edgeLabel;html=1;align=center;verticalAlign=middle;resizable=0;points=[];fontFamily=Helvetica;fontSize=11;fontColor=default;labelBackgroundColor=default;" vertex="1" connectable="0" parent="wvnl2PtTV5zYkJV1DuqI-49">
          <mxGeometry x="0.8907" y="1" relative="1" as="geometry">
            <mxPoint as="offset" />
          </mxGeometry>
        </mxCell>
        <mxCell id="wvnl2PtTV5zYkJV1DuqI-50" style="edgeStyle=orthogonalEdgeStyle;shape=connector;rounded=0;orthogonalLoop=1;jettySize=auto;html=1;exitX=0.5;exitY=1;exitDx=0;exitDy=0;entryX=0;entryY=0.75;entryDx=0;entryDy=0;strokeColor=default;align=center;verticalAlign=middle;fontFamily=Helvetica;fontSize=11;fontColor=default;labelBackgroundColor=default;endArrow=none;endFill=0;" parent="WIyWlLk6GJQsqaUBKTNV-1" source="wvnl2PtTV5zYkJV1DuqI-25" target="WIyWlLk6GJQsqaUBKTNV-3" edge="1">
          <mxGeometry relative="1" as="geometry" />
        </mxCell>
        <mxCell id="9lHl1m840VJ-pq4PB7hQ-13" value="m" style="edgeLabel;html=1;align=center;verticalAlign=middle;resizable=0;points=[];fontFamily=Helvetica;fontSize=11;fontColor=default;labelBackgroundColor=default;" vertex="1" connectable="0" parent="wvnl2PtTV5zYkJV1DuqI-50">
          <mxGeometry x="0.7953" y="1" relative="1" as="geometry">
            <mxPoint as="offset" />
          </mxGeometry>
        </mxCell>
        <mxCell id="wvnl2PtTV5zYkJV1DuqI-25" value="fragt Freundschaft an" style="rhombus;whiteSpace=wrap;html=1;fontFamily=Helvetica;fontSize=11;fontColor=default;labelBackgroundColor=default;" parent="WIyWlLk6GJQsqaUBKTNV-1" vertex="1">
          <mxGeometry x="-620" y="310" width="140" height="145" as="geometry" />
        </mxCell>
        <mxCell id="wvnl2PtTV5zYkJV1DuqI-32" value="" style="edgeStyle=orthogonalEdgeStyle;shape=connector;rounded=0;orthogonalLoop=1;jettySize=auto;html=1;exitX=0.75;exitY=0;exitDx=0;exitDy=0;entryX=0;entryY=0.5;entryDx=0;entryDy=0;strokeColor=default;align=center;verticalAlign=middle;fontFamily=Helvetica;fontSize=11;fontColor=default;labelBackgroundColor=default;endArrow=none;endFill=0;" parent="WIyWlLk6GJQsqaUBKTNV-1" source="WIyWlLk6GJQsqaUBKTNV-3" target="wvnl2PtTV5zYkJV1DuqI-31" edge="1">
          <mxGeometry relative="1" as="geometry">
            <mxPoint x="-200" y="460" as="sourcePoint" />
            <mxPoint x="-70" y="230" as="targetPoint" />
          </mxGeometry>
        </mxCell>
        <mxCell id="9lHl1m840VJ-pq4PB7hQ-24" value="n" style="edgeLabel;html=1;align=center;verticalAlign=middle;resizable=0;points=[];fontFamily=Helvetica;fontSize=11;fontColor=default;labelBackgroundColor=default;" vertex="1" connectable="0" parent="wvnl2PtTV5zYkJV1DuqI-32">
          <mxGeometry x="-0.7933" relative="1" as="geometry">
            <mxPoint as="offset" />
          </mxGeometry>
        </mxCell>
        <mxCell id="wvnl2PtTV5zYkJV1DuqI-31" value="vergibt" style="rhombus;whiteSpace=wrap;html=1;fontFamily=Helvetica;fontSize=11;fontColor=default;labelBackgroundColor=default;" parent="WIyWlLk6GJQsqaUBKTNV-1" vertex="1">
          <mxGeometry x="-220" y="260" width="80" height="80" as="geometry" />
        </mxCell>
        <mxCell id="wvnl2PtTV5zYkJV1DuqI-33" value="" style="edgeStyle=orthogonalEdgeStyle;shape=connector;rounded=0;orthogonalLoop=1;jettySize=auto;html=1;exitX=1;exitY=0.5;exitDx=0;exitDy=0;entryX=0;entryY=0.5;entryDx=0;entryDy=0;strokeColor=default;align=center;verticalAlign=middle;fontFamily=Helvetica;fontSize=11;fontColor=default;labelBackgroundColor=default;endArrow=none;endFill=0;" parent="WIyWlLk6GJQsqaUBKTNV-1" source="WIyWlLk6GJQsqaUBKTNV-3" target="wvnl2PtTV5zYkJV1DuqI-34" edge="1">
          <mxGeometry relative="1" as="geometry">
            <mxPoint x="-200" y="460" as="sourcePoint" />
            <mxPoint x="350" y="230" as="targetPoint" />
          </mxGeometry>
        </mxCell>
        <mxCell id="9lHl1m840VJ-pq4PB7hQ-26" value="1" style="edgeLabel;html=1;align=center;verticalAlign=middle;resizable=0;points=[];fontFamily=Helvetica;fontSize=11;fontColor=default;labelBackgroundColor=default;" vertex="1" connectable="0" parent="wvnl2PtTV5zYkJV1DuqI-33">
          <mxGeometry x="-0.8712" y="-2" relative="1" as="geometry">
            <mxPoint as="offset" />
          </mxGeometry>
        </mxCell>
        <mxCell id="wvnl2PtTV5zYkJV1DuqI-34" value="sendet" style="rhombus;whiteSpace=wrap;html=1;fontFamily=Helvetica;fontSize=11;fontColor=default;labelBackgroundColor=default;" parent="WIyWlLk6GJQsqaUBKTNV-1" vertex="1">
          <mxGeometry x="60" y="310" width="80" height="80" as="geometry" />
        </mxCell>
        <mxCell id="wvnl2PtTV5zYkJV1DuqI-36" value="besitzt" style="rhombus;whiteSpace=wrap;html=1;fontFamily=Helvetica;fontSize=11;fontColor=default;labelBackgroundColor=default;" parent="WIyWlLk6GJQsqaUBKTNV-1" vertex="1">
          <mxGeometry x="140" y="420" width="80" height="80" as="geometry" />
        </mxCell>
        <mxCell id="wvnl2PtTV5zYkJV1DuqI-38" value="" style="edgeStyle=orthogonalEdgeStyle;shape=connector;rounded=0;orthogonalLoop=1;jettySize=auto;html=1;exitX=0;exitY=1;exitDx=0;exitDy=0;entryX=0;entryY=0.5;entryDx=0;entryDy=0;strokeColor=default;align=center;verticalAlign=middle;fontFamily=Helvetica;fontSize=11;fontColor=default;labelBackgroundColor=default;endArrow=none;endFill=0;" parent="WIyWlLk6GJQsqaUBKTNV-1" source="WIyWlLk6GJQsqaUBKTNV-3" target="wvnl2PtTV5zYkJV1DuqI-39" edge="1">
          <mxGeometry relative="1" as="geometry">
            <mxPoint x="-200" y="460" as="sourcePoint" />
            <mxPoint x="350" y="720" as="targetPoint" />
          </mxGeometry>
        </mxCell>
        <mxCell id="9lHl1m840VJ-pq4PB7hQ-16" value="n" style="edgeLabel;html=1;align=center;verticalAlign=middle;resizable=0;points=[];fontFamily=Helvetica;fontSize=11;fontColor=default;labelBackgroundColor=default;" vertex="1" connectable="0" parent="wvnl2PtTV5zYkJV1DuqI-38">
          <mxGeometry x="-0.9409" relative="1" as="geometry">
            <mxPoint as="offset" />
          </mxGeometry>
        </mxCell>
        <mxCell id="wvnl2PtTV5zYkJV1DuqI-39" value="betreibt" style="rhombus;whiteSpace=wrap;html=1;fontFamily=Helvetica;fontSize=11;fontColor=default;labelBackgroundColor=default;" parent="WIyWlLk6GJQsqaUBKTNV-1" vertex="1">
          <mxGeometry x="-930" y="530" width="80" height="80" as="geometry" />
        </mxCell>
        <mxCell id="wvnl2PtTV5zYkJV1DuqI-40" value="" style="edgeStyle=orthogonalEdgeStyle;shape=connector;rounded=0;orthogonalLoop=1;jettySize=auto;html=1;exitX=0.5;exitY=1;exitDx=0;exitDy=0;entryX=0.5;entryY=0;entryDx=0;entryDy=0;strokeColor=default;align=center;verticalAlign=middle;fontFamily=Helvetica;fontSize=11;fontColor=default;labelBackgroundColor=default;endArrow=none;endFill=0;" parent="WIyWlLk6GJQsqaUBKTNV-1" source="WIyWlLk6GJQsqaUBKTNV-3" target="wvnl2PtTV5zYkJV1DuqI-35" edge="1">
          <mxGeometry relative="1" as="geometry">
            <mxPoint x="-200" y="460" as="sourcePoint" />
            <mxPoint x="-440" y="760" as="targetPoint" />
          </mxGeometry>
        </mxCell>
        <mxCell id="9lHl1m840VJ-pq4PB7hQ-21" value="1" style="edgeLabel;html=1;align=center;verticalAlign=middle;resizable=0;points=[];fontFamily=Helvetica;fontSize=11;fontColor=default;labelBackgroundColor=default;" vertex="1" connectable="0" parent="wvnl2PtTV5zYkJV1DuqI-40">
          <mxGeometry x="-0.7684" relative="1" as="geometry">
            <mxPoint as="offset" />
          </mxGeometry>
        </mxCell>
        <mxCell id="wvnl2PtTV5zYkJV1DuqI-35" value="hat" style="rhombus;whiteSpace=wrap;html=1;fontFamily=Helvetica;fontSize=11;fontColor=default;labelBackgroundColor=default;" parent="WIyWlLk6GJQsqaUBKTNV-1" vertex="1">
          <mxGeometry x="-300" y="585" width="80" height="80" as="geometry" />
        </mxCell>
        <mxCell id="9lHl1m840VJ-pq4PB7hQ-5" style="edgeStyle=orthogonalEdgeStyle;rounded=0;orthogonalLoop=1;jettySize=auto;html=1;exitX=0;exitY=0.5;exitDx=0;exitDy=0;entryX=1;entryY=0.5;entryDx=0;entryDy=0;endArrow=none;endFill=0;" edge="1" parent="WIyWlLk6GJQsqaUBKTNV-1" source="9lHl1m840VJ-pq4PB7hQ-3" target="wvnl2PtTV5zYkJV1DuqI-3">
          <mxGeometry relative="1" as="geometry" />
        </mxCell>
        <mxCell id="9lHl1m840VJ-pq4PB7hQ-19" value="m" style="edgeLabel;html=1;align=center;verticalAlign=middle;resizable=0;points=[];fontFamily=Helvetica;fontSize=11;fontColor=default;labelBackgroundColor=default;" vertex="1" connectable="0" parent="9lHl1m840VJ-pq4PB7hQ-5">
          <mxGeometry x="0.6725" y="4" relative="1" as="geometry">
            <mxPoint as="offset" />
          </mxGeometry>
        </mxCell>
        <mxCell id="9lHl1m840VJ-pq4PB7hQ-15" style="edgeStyle=orthogonalEdgeStyle;shape=connector;rounded=0;orthogonalLoop=1;jettySize=auto;html=1;exitX=0.5;exitY=1;exitDx=0;exitDy=0;entryX=0.5;entryY=0;entryDx=0;entryDy=0;strokeColor=default;align=center;verticalAlign=middle;fontFamily=Helvetica;fontSize=11;fontColor=default;labelBackgroundColor=default;endArrow=none;endFill=0;" edge="1" parent="WIyWlLk6GJQsqaUBKTNV-1" source="9lHl1m840VJ-pq4PB7hQ-3" target="9lHl1m840VJ-pq4PB7hQ-14">
          <mxGeometry relative="1" as="geometry" />
        </mxCell>
        <mxCell id="9lHl1m840VJ-pq4PB7hQ-3" value="bewertet" style="rhombus;whiteSpace=wrap;html=1;fontFamily=Helvetica;fontSize=11;fontColor=default;labelBackgroundColor=default;" vertex="1" parent="WIyWlLk6GJQsqaUBKTNV-1">
          <mxGeometry x="-510" y="530" width="80" height="80" as="geometry" />
        </mxCell>
        <mxCell id="9lHl1m840VJ-pq4PB7hQ-11" style="edgeStyle=orthogonalEdgeStyle;shape=connector;rounded=0;orthogonalLoop=1;jettySize=auto;html=1;exitX=0.5;exitY=1;exitDx=0;exitDy=0;entryX=0.75;entryY=0;entryDx=0;entryDy=0;strokeColor=default;align=center;verticalAlign=middle;fontFamily=Helvetica;fontSize=11;fontColor=default;labelBackgroundColor=default;endArrow=none;endFill=0;" edge="1" parent="WIyWlLk6GJQsqaUBKTNV-1" source="9lHl1m840VJ-pq4PB7hQ-8" target="wvnl2PtTV5zYkJV1DuqI-0">
          <mxGeometry relative="1" as="geometry" />
        </mxCell>
        <mxCell id="9lHl1m840VJ-pq4PB7hQ-23" value="m" style="edgeLabel;html=1;align=center;verticalAlign=middle;resizable=0;points=[];fontFamily=Helvetica;fontSize=11;fontColor=default;labelBackgroundColor=default;" vertex="1" connectable="0" parent="9lHl1m840VJ-pq4PB7hQ-11">
          <mxGeometry x="0.7416" y="1" relative="1" as="geometry">
            <mxPoint as="offset" />
          </mxGeometry>
        </mxCell>
        <mxCell id="9lHl1m840VJ-pq4PB7hQ-8" value="interessiert an" style="rhombus;whiteSpace=wrap;html=1;fontFamily=Helvetica;fontSize=11;fontColor=default;labelBackgroundColor=default;" vertex="1" parent="WIyWlLk6GJQsqaUBKTNV-1">
          <mxGeometry x="-190" y="584" width="80" height="80" as="geometry" />
        </mxCell>
        <mxCell id="9lHl1m840VJ-pq4PB7hQ-14" value="PrÃ¤ferenz: -100-100" style="ellipse;whiteSpace=wrap;html=1;fontFamily=Helvetica;fontSize=11;fontColor=default;labelBackgroundColor=default;" vertex="1" parent="WIyWlLk6GJQsqaUBKTNV-1">
          <mxGeometry x="-535" y="630" width="130" height="30" as="geometry" />
        </mxCell>
        <mxCell id="9lHl1m840VJ-pq4PB7hQ-51" style="edgeStyle=orthogonalEdgeStyle;shape=connector;rounded=0;orthogonalLoop=1;jettySize=auto;html=1;exitX=1;exitY=0.5;exitDx=0;exitDy=0;entryX=0;entryY=0.5;entryDx=0;entryDy=0;strokeColor=default;align=center;verticalAlign=middle;fontFamily=Helvetica;fontSize=11;fontColor=default;labelBackgroundColor=default;endArrow=none;endFill=0;" edge="1" parent="WIyWlLk6GJQsqaUBKTNV-1" source="9lHl1m840VJ-pq4PB7hQ-30" target="9lHl1m840VJ-pq4PB7hQ-31">
          <mxGeometry relative="1" as="geometry" />
        </mxCell>
        <mxCell id="9lHl1m840VJ-pq4PB7hQ-52" style="edgeStyle=orthogonalEdgeStyle;shape=connector;rounded=0;orthogonalLoop=1;jettySize=auto;html=1;exitX=1;exitY=0.25;exitDx=0;exitDy=0;strokeColor=default;align=center;verticalAlign=middle;fontFamily=Helvetica;fontSize=11;fontColor=default;labelBackgroundColor=default;endArrow=none;endFill=0;entryX=0;entryY=0;entryDx=0;entryDy=0;" edge="1" parent="WIyWlLk6GJQsqaUBKTNV-1" source="9lHl1m840VJ-pq4PB7hQ-30" target="9lHl1m840VJ-pq4PB7hQ-32">
          <mxGeometry relative="1" as="geometry">
            <mxPoint x="-700" y="1090" as="targetPoint" />
            <Array as="points">
              <mxPoint x="-690" y="1180" />
              <mxPoint x="-690" y="1110" />
              <mxPoint x="-430" y="1110" />
            </Array>
          </mxGeometry>
        </mxCell>
        <mxCell id="9lHl1m840VJ-pq4PB7hQ-53" style="edgeStyle=orthogonalEdgeStyle;shape=connector;rounded=0;orthogonalLoop=1;jettySize=auto;html=1;exitX=1;exitY=0;exitDx=0;exitDy=0;entryX=0.25;entryY=0;entryDx=0;entryDy=0;strokeColor=default;align=center;verticalAlign=middle;fontFamily=Helvetica;fontSize=11;fontColor=default;labelBackgroundColor=default;endArrow=none;endFill=0;" edge="1" parent="WIyWlLk6GJQsqaUBKTNV-1" source="9lHl1m840VJ-pq4PB7hQ-30" target="9lHl1m840VJ-pq4PB7hQ-33">
          <mxGeometry relative="1" as="geometry">
            <Array as="points">
              <mxPoint x="-720" y="1090" />
              <mxPoint x="-130" y="1090" />
            </Array>
          </mxGeometry>
        </mxCell>
        <mxCell id="9lHl1m840VJ-pq4PB7hQ-54" style="edgeStyle=orthogonalEdgeStyle;shape=connector;rounded=0;orthogonalLoop=1;jettySize=auto;html=1;exitX=0.75;exitY=0;exitDx=0;exitDy=0;entryX=0.5;entryY=0;entryDx=0;entryDy=0;strokeColor=default;align=center;verticalAlign=middle;fontFamily=Helvetica;fontSize=11;fontColor=default;labelBackgroundColor=default;endArrow=none;endFill=0;" edge="1" parent="WIyWlLk6GJQsqaUBKTNV-1" source="9lHl1m840VJ-pq4PB7hQ-30" target="9lHl1m840VJ-pq4PB7hQ-34">
          <mxGeometry relative="1" as="geometry">
            <Array as="points">
              <mxPoint x="-770" y="1040" />
              <mxPoint x="160" y="1040" />
            </Array>
          </mxGeometry>
        </mxCell>
        <mxCell id="9lHl1m840VJ-pq4PB7hQ-55" style="edgeStyle=orthogonalEdgeStyle;shape=connector;rounded=0;orthogonalLoop=1;jettySize=auto;html=1;exitX=0.5;exitY=0;exitDx=0;exitDy=0;strokeColor=default;align=center;verticalAlign=middle;fontFamily=Helvetica;fontSize=11;fontColor=default;labelBackgroundColor=default;endArrow=none;endFill=0;entryX=0.5;entryY=0;entryDx=0;entryDy=0;" edge="1" parent="WIyWlLk6GJQsqaUBKTNV-1" source="9lHl1m840VJ-pq4PB7hQ-30" target="9lHl1m840VJ-pq4PB7hQ-35">
          <mxGeometry relative="1" as="geometry">
            <mxPoint x="-790" y="960" as="targetPoint" />
            <Array as="points">
              <mxPoint x="-820" y="1010" />
              <mxPoint x="400" y="1010" />
            </Array>
          </mxGeometry>
        </mxCell>
        <mxCell id="9lHl1m840VJ-pq4PB7hQ-56" style="edgeStyle=orthogonalEdgeStyle;shape=connector;rounded=0;orthogonalLoop=1;jettySize=auto;html=1;exitX=0.5;exitY=1;exitDx=0;exitDy=0;entryX=0.5;entryY=0;entryDx=0;entryDy=0;strokeColor=default;align=center;verticalAlign=middle;fontFamily=Helvetica;fontSize=11;fontColor=default;labelBackgroundColor=default;endArrow=none;endFill=0;" edge="1" parent="WIyWlLk6GJQsqaUBKTNV-1" source="9lHl1m840VJ-pq4PB7hQ-30" target="9lHl1m840VJ-pq4PB7hQ-36">
          <mxGeometry relative="1" as="geometry" />
        </mxCell>
        <mxCell id="9lHl1m840VJ-pq4PB7hQ-30" value="Nutzer" style="swimlane;whiteSpace=wrap;html=1;fontFamily=Helvetica;fontSize=11;fontColor=default;labelBackgroundColor=default;" vertex="1" parent="WIyWlLk6GJQsqaUBKTNV-1">
          <mxGeometry x="-920" y="1130" width="200" height="200" as="geometry" />
        </mxCell>
        <mxCell id="9lHl1m840VJ-pq4PB7hQ-37" value="&lt;div style=&quot;text-align: left;&quot;&gt;&lt;u style=&quot;color: light-dark(rgb(0, 0, 0), rgb(255, 255, 255));&quot;&gt;ID(PK),&lt;/u&gt;&lt;/div&gt;&lt;div style=&quot;text-align: left;&quot;&gt;Nachname,&lt;/div&gt;&lt;div style=&quot;text-align: left;&quot;&gt;Vorname,&lt;/div&gt;&lt;div style=&quot;text-align: left;&quot;&gt;StraÃŸe,&lt;/div&gt;&lt;div style=&quot;text-align: left;&quot;&gt;Hausnummer,&lt;/div&gt;&lt;div style=&quot;text-align: left;&quot;&gt;PLZ,&lt;/div&gt;&lt;div style=&quot;text-align: left;&quot;&gt;Ort,&lt;/div&gt;&lt;div style=&quot;text-align: left;&quot;&gt;Telefonnummer,&lt;/div&gt;&lt;div style=&quot;text-align: left;&quot;&gt;Geschlecht_ID(FK)&lt;/div&gt;&lt;div style=&quot;text-align: left;&quot;&gt;Geburtsdatum,&lt;/div&gt;&lt;div style=&quot;text-align: left;&quot;&gt;E-Mail,&lt;/div&gt;&lt;div style=&quot;text-align: left;&quot;&gt;createdAt,&lt;br&gt;updatedAt&lt;/div&gt;" style="text;html=1;align=center;verticalAlign=middle;resizable=0;points=[];autosize=1;strokeColor=none;fillColor=none;fontFamily=Helvetica;fontSize=11;fontColor=default;labelBackgroundColor=default;" vertex="1" parent="9lHl1m840VJ-pq4PB7hQ-30">
          <mxGeometry y="20" width="120" height="180" as="geometry" />
        </mxCell>
        <mxCell id="9lHl1m840VJ-pq4PB7hQ-62" style="edgeStyle=orthogonalEdgeStyle;shape=connector;rounded=0;orthogonalLoop=1;jettySize=auto;html=1;exitX=0.5;exitY=0;exitDx=0;exitDy=0;entryX=0.5;entryY=0;entryDx=0;entryDy=0;strokeColor=default;align=center;verticalAlign=middle;fontFamily=Helvetica;fontSize=11;fontColor=default;labelBackgroundColor=default;endArrow=none;endFill=0;jumpStyle=arc;" edge="1" parent="WIyWlLk6GJQsqaUBKTNV-1" source="9lHl1m840VJ-pq4PB7hQ-31" target="9lHl1m840VJ-pq4PB7hQ-49">
          <mxGeometry relative="1" as="geometry">
            <Array as="points">
              <mxPoint x="-580" y="950" />
              <mxPoint x="-1110" y="950" />
            </Array>
          </mxGeometry>
        </mxCell>
        <mxCell id="9lHl1m840VJ-pq4PB7hQ-31" value="Geschlecht" style="swimlane;whiteSpace=wrap;html=1;fontFamily=Helvetica;fontSize=11;fontColor=default;labelBackgroundColor=default;" vertex="1" parent="WIyWlLk6GJQsqaUBKTNV-1">
          <mxGeometry x="-680" y="1130" width="200" height="200" as="geometry" />
        </mxCell>
        <mxCell id="9lHl1m840VJ-pq4PB7hQ-39" value="&lt;u&gt;ID(PK)&lt;/u&gt;&lt;div&gt;GeschlechtsidentitÃ¤t&lt;/div&gt;" style="text;html=1;align=left;verticalAlign=middle;resizable=0;points=[];autosize=1;strokeColor=none;fillColor=none;fontFamily=Helvetica;fontSize=11;fontColor=default;labelBackgroundColor=default;" vertex="1" parent="9lHl1m840VJ-pq4PB7hQ-31">
          <mxGeometry y="20" width="120" height="40" as="geometry" />
        </mxCell>
        <mxCell id="9lHl1m840VJ-pq4PB7hQ-32" value="Hobby" style="swimlane;whiteSpace=wrap;html=1;fontFamily=Helvetica;fontSize=11;fontColor=default;labelBackgroundColor=default;" vertex="1" parent="WIyWlLk6GJQsqaUBKTNV-1">
          <mxGeometry x="-430" y="1130" width="200" height="200" as="geometry" />
        </mxCell>
        <mxCell id="9lHl1m840VJ-pq4PB7hQ-40" value="&lt;u&gt;ID(PK)&lt;/u&gt;&lt;div&gt;Bezeichnung&lt;/div&gt;" style="text;html=1;align=left;verticalAlign=middle;resizable=0;points=[];autosize=1;strokeColor=none;fillColor=none;fontFamily=Helvetica;fontSize=11;fontColor=default;labelBackgroundColor=default;" vertex="1" parent="9lHl1m840VJ-pq4PB7hQ-32">
          <mxGeometry y="20" width="90" height="40" as="geometry" />
        </mxCell>
        <mxCell id="9lHl1m840VJ-pq4PB7hQ-33" value="Bild" style="swimlane;whiteSpace=wrap;html=1;fontFamily=Helvetica;fontSize=11;fontColor=default;labelBackgroundColor=default;" vertex="1" parent="WIyWlLk6GJQsqaUBKTNV-1">
          <mxGeometry x="-180" y="1130" width="200" height="200" as="geometry" />
        </mxCell>
        <mxCell id="9lHl1m840VJ-pq4PB7hQ-41" value="&lt;span&gt;&lt;u style=&quot;font-size: 12px; text-wrap-mode: wrap;&quot;&gt;ID(PK)&lt;/u&gt;&lt;span style=&quot;font-size: 12px; text-wrap-mode: wrap;&quot;&gt;,&lt;/span&gt;&lt;/span&gt;&lt;div style=&quot;&quot;&gt;&lt;span style=&quot;font-size: 12px; text-wrap-mode: wrap;&quot;&gt;&amp;nbsp;BLOB_Datei,&lt;/span&gt;&lt;/div&gt;&lt;div style=&quot;&quot;&gt;&lt;span style=&quot;font-size: 12px; text-wrap-mode: wrap;&quot;&gt;&amp;nbsp;istProfilbild,&lt;/span&gt;&lt;/div&gt;&lt;div style=&quot;&quot;&gt;&lt;span style=&quot;font-size: 12px; text-wrap-mode: wrap;&quot;&gt;&amp;nbsp;Link,&lt;/span&gt;&lt;/div&gt;&lt;div style=&quot;&quot;&gt;&lt;span style=&quot;font-size: 12px; text-wrap-mode: wrap;&quot;&gt;Nutzer_ID(FK)&lt;/span&gt;&lt;/div&gt;" style="text;html=1;align=left;verticalAlign=middle;resizable=0;points=[];autosize=1;strokeColor=none;fillColor=none;fontFamily=Helvetica;fontSize=11;fontColor=default;labelBackgroundColor=default;" vertex="1" parent="9lHl1m840VJ-pq4PB7hQ-33">
          <mxGeometry y="20" width="100" height="90" as="geometry" />
        </mxCell>
        <mxCell id="9lHl1m840VJ-pq4PB7hQ-34" value="Messages" style="swimlane;whiteSpace=wrap;html=1;fontFamily=Helvetica;fontSize=11;fontColor=default;labelBackgroundColor=default;" vertex="1" parent="WIyWlLk6GJQsqaUBKTNV-1">
          <mxGeometry x="60" y="1130" width="200" height="200" as="geometry" />
        </mxCell>
        <mxCell id="9lHl1m840VJ-pq4PB7hQ-42" value="&lt;span&gt;&lt;u&gt;ID(PK)&lt;/u&gt;,&lt;/span&gt;&lt;div&gt;&lt;span style=&quot;font-size: 12px; text-wrap-mode: wrap;&quot;&gt;recieving_Nutzer_ID(FK),&lt;/span&gt;&lt;/div&gt;&lt;div&gt;&lt;span style=&quot;font-size: 12px; text-wrap-mode: wrap;&quot;&gt;content,&lt;/span&gt;&lt;/div&gt;&lt;div&gt;&lt;span style=&quot;font-size: 12px; text-wrap-mode: wrap;&quot;&gt;timestamp,&lt;/span&gt;&lt;/div&gt;&lt;div&gt;&lt;span style=&quot;font-size: 12px; text-wrap-mode: wrap;&quot;&gt;sending_Nutzer_ID(FK)&lt;/span&gt;&lt;/div&gt;" style="text;html=1;align=left;verticalAlign=middle;resizable=0;points=[];autosize=1;strokeColor=none;fillColor=none;fontFamily=Helvetica;fontSize=11;fontColor=default;labelBackgroundColor=default;" vertex="1" parent="9lHl1m840VJ-pq4PB7hQ-34">
          <mxGeometry x="10" y="25" width="160" height="80" as="geometry" />
        </mxCell>
        <mxCell id="9lHl1m840VJ-pq4PB7hQ-35" value="Likes" style="swimlane;whiteSpace=wrap;html=1;fontFamily=Helvetica;fontSize=11;fontColor=default;labelBackgroundColor=default;" vertex="1" parent="WIyWlLk6GJQsqaUBKTNV-1">
          <mxGeometry x="300" y="1130" width="200" height="200" as="geometry" />
        </mxCell>
        <mxCell id="9lHl1m840VJ-pq4PB7hQ-43" value="&lt;u&gt;liker_ID(Nutzer_ID),(PK)(FK)&lt;/u&gt;&lt;div&gt;&lt;u&gt;&amp;nbsp;liked_ID(Nutzer_ID)(PK)(FK)&lt;/u&gt;&lt;div style=&quot;text-align: left;&quot;&gt;status,&lt;/div&gt;&lt;div style=&quot;text-align: left;&quot;&gt;timestamp&lt;/div&gt;&lt;/div&gt;" style="text;html=1;align=center;verticalAlign=middle;resizable=0;points=[];autosize=1;strokeColor=none;fillColor=none;fontFamily=Helvetica;fontSize=11;fontColor=default;labelBackgroundColor=default;" vertex="1" parent="9lHl1m840VJ-pq4PB7hQ-35">
          <mxGeometry y="20" width="170" height="70" as="geometry" />
        </mxCell>
        <mxCell id="9lHl1m840VJ-pq4PB7hQ-36" value="Freundschaften" style="swimlane;whiteSpace=wrap;html=1;fontFamily=Helvetica;fontSize=11;fontColor=default;labelBackgroundColor=default;" vertex="1" parent="WIyWlLk6GJQsqaUBKTNV-1">
          <mxGeometry x="-920" y="1360" width="200" height="200" as="geometry" />
        </mxCell>
        <mxCell id="9lHl1m840VJ-pq4PB7hQ-44" value="&lt;div style=&quot;&quot;&gt;&lt;u style=&quot;color: light-dark(rgb(0, 0, 0), rgb(255, 255, 255));&quot;&gt;Nutzer1_ID,&amp;nbsp;&lt;span style=&quot;background-color: light-dark(#ffffff, var(--ge-dark-color, #121212)); color: light-dark(rgb(0, 0, 0), rgb(255, 255, 255));&quot;&gt;Nutzer2_ID (PK)&lt;/span&gt;&lt;/u&gt;&lt;/div&gt;&lt;div&gt;status&lt;/div&gt;&lt;div&gt;sendAT&lt;/div&gt;&lt;div&gt;respondedAT&lt;/div&gt;" style="text;html=1;align=left;verticalAlign=middle;resizable=0;points=[];autosize=1;strokeColor=none;fillColor=none;fontFamily=Helvetica;fontSize=11;fontColor=default;labelBackgroundColor=default;" vertex="1" parent="9lHl1m840VJ-pq4PB7hQ-36">
          <mxGeometry x="10" y="30" width="170" height="70" as="geometry" />
        </mxCell>
        <mxCell id="9lHl1m840VJ-pq4PB7hQ-57" style="edgeStyle=orthogonalEdgeStyle;shape=connector;rounded=0;orthogonalLoop=1;jettySize=auto;html=1;exitX=0;exitY=0.25;exitDx=0;exitDy=0;entryX=1;entryY=1;entryDx=0;entryDy=0;strokeColor=default;align=center;verticalAlign=middle;fontFamily=Helvetica;fontSize=11;fontColor=default;labelBackgroundColor=default;endArrow=none;endFill=0;" edge="1" parent="WIyWlLk6GJQsqaUBKTNV-1" source="9lHl1m840VJ-pq4PB7hQ-45" target="9lHl1m840VJ-pq4PB7hQ-30">
          <mxGeometry relative="1" as="geometry">
            <Array as="points">
              <mxPoint x="-700" y="1410" />
              <mxPoint x="-700" y="1330" />
            </Array>
          </mxGeometry>
        </mxCell>
        <mxCell id="9lHl1m840VJ-pq4PB7hQ-58" style="edgeStyle=orthogonalEdgeStyle;shape=connector;rounded=0;orthogonalLoop=1;jettySize=auto;html=1;exitX=1;exitY=0.25;exitDx=0;exitDy=0;entryX=0;entryY=0.5;entryDx=0;entryDy=0;strokeColor=default;align=center;verticalAlign=middle;fontFamily=Helvetica;fontSize=11;fontColor=default;labelBackgroundColor=default;endArrow=none;endFill=0;" edge="1" parent="WIyWlLk6GJQsqaUBKTNV-1" source="9lHl1m840VJ-pq4PB7hQ-45" target="9lHl1m840VJ-pq4PB7hQ-32">
          <mxGeometry relative="1" as="geometry" />
        </mxCell>
        <mxCell id="9lHl1m840VJ-pq4PB7hQ-45" value="Nutzer_Hobby" style="swimlane;whiteSpace=wrap;html=1;fontFamily=Helvetica;fontSize=11;fontColor=default;labelBackgroundColor=default;" vertex="1" parent="WIyWlLk6GJQsqaUBKTNV-1">
          <mxGeometry x="-680" y="1360" width="200" height="200" as="geometry" />
        </mxCell>
        <mxCell id="9lHl1m840VJ-pq4PB7hQ-46" value="&lt;div style=&quot;text-align: left;&quot;&gt;&lt;u style=&quot;color: light-dark(rgb(0, 0, 0), rgb(255, 255, 255));&quot;&gt;Nutzer_ID, (PK)(FK)&lt;/u&gt;&lt;/div&gt;&lt;div&gt;&lt;div style=&quot;text-align: left;&quot;&gt;&lt;u style=&quot;background-color: light-dark(#ffffff, var(--ge-dark-color, #121212)); color: light-dark(rgb(0, 0, 0), rgb(255, 255, 255));&quot;&gt;Hobby_ID (PK)(FK)&lt;/u&gt;&lt;/div&gt;&lt;div style=&quot;text-align: left;&quot;&gt;&lt;u&gt;&lt;br&gt;&lt;/u&gt;&lt;/div&gt;&lt;/div&gt;" style="text;html=1;align=center;verticalAlign=middle;resizable=0;points=[];autosize=1;strokeColor=none;fillColor=none;fontFamily=Helvetica;fontSize=11;fontColor=default;labelBackgroundColor=default;" vertex="1" parent="9lHl1m840VJ-pq4PB7hQ-45">
          <mxGeometry x="15" y="25" width="120" height="50" as="geometry" />
        </mxCell>
        <mxCell id="9lHl1m840VJ-pq4PB7hQ-59" style="edgeStyle=orthogonalEdgeStyle;shape=connector;rounded=0;orthogonalLoop=1;jettySize=auto;html=1;exitX=0.5;exitY=0;exitDx=0;exitDy=0;entryX=0.5;entryY=1;entryDx=0;entryDy=0;strokeColor=default;align=center;verticalAlign=middle;fontFamily=Helvetica;fontSize=11;fontColor=default;labelBackgroundColor=default;endArrow=none;endFill=0;" edge="1" parent="WIyWlLk6GJQsqaUBKTNV-1" source="9lHl1m840VJ-pq4PB7hQ-47" target="9lHl1m840VJ-pq4PB7hQ-32">
          <mxGeometry relative="1" as="geometry" />
        </mxCell>
        <mxCell id="9lHl1m840VJ-pq4PB7hQ-60" style="edgeStyle=orthogonalEdgeStyle;shape=connector;rounded=0;orthogonalLoop=1;jettySize=auto;html=1;exitX=0.5;exitY=1;exitDx=0;exitDy=0;strokeColor=default;align=center;verticalAlign=middle;fontFamily=Helvetica;fontSize=11;fontColor=default;labelBackgroundColor=default;endArrow=none;endFill=0;entryX=0.012;entryY=0.77;entryDx=0;entryDy=0;entryPerimeter=0;" edge="1" parent="WIyWlLk6GJQsqaUBKTNV-1" source="9lHl1m840VJ-pq4PB7hQ-47" target="9lHl1m840VJ-pq4PB7hQ-37">
          <mxGeometry relative="1" as="geometry">
            <mxPoint x="-961.1764705882352" y="1300" as="targetPoint" />
            <Array as="points">
              <mxPoint x="-330" y="1580" />
              <mxPoint x="-970" y="1580" />
              <mxPoint x="-970" y="1289" />
            </Array>
          </mxGeometry>
        </mxCell>
        <mxCell id="9lHl1m840VJ-pq4PB7hQ-47" value="Nutzer_Hobby_PrÃ¤ferenz" style="swimlane;whiteSpace=wrap;html=1;fontFamily=Helvetica;fontSize=11;fontColor=default;labelBackgroundColor=default;" vertex="1" parent="WIyWlLk6GJQsqaUBKTNV-1">
          <mxGeometry x="-430" y="1360" width="200" height="200" as="geometry" />
        </mxCell>
        <mxCell id="9lHl1m840VJ-pq4PB7hQ-48" value="&lt;u&gt;Nutzer_ID,(PK)(FK)&lt;/u&gt;&lt;div&gt;&lt;u&gt;&amp;nbsp;Hobby_ID (PK)(FK)&lt;/u&gt;&lt;div&gt;PrÃ¤ferenz&lt;/div&gt;&lt;/div&gt;" style="text;html=1;align=left;verticalAlign=middle;resizable=0;points=[];autosize=1;strokeColor=none;fillColor=none;fontFamily=Helvetica;fontSize=11;fontColor=default;labelBackgroundColor=default;" vertex="1" parent="9lHl1m840VJ-pq4PB7hQ-47">
          <mxGeometry x="17" y="25" width="120" height="50" as="geometry" />
        </mxCell>
        <mxCell id="9lHl1m840VJ-pq4PB7hQ-49" value="interessiert_an" style="swimlane;whiteSpace=wrap;html=1;fontFamily=Helvetica;fontSize=11;fontColor=default;labelBackgroundColor=default;" vertex="1" parent="WIyWlLk6GJQsqaUBKTNV-1">
          <mxGeometry x="-1210" y="1130" width="200" height="200" as="geometry" />
        </mxCell>
        <mxCell id="9lHl1m840VJ-pq4PB7hQ-50" value="&lt;u&gt;Nutzer_ID,(PK)(FK)&lt;/u&gt;&lt;div&gt;&lt;u&gt;Geschlecht_ID,(PK)(FK)&lt;/u&gt;&lt;/div&gt;" style="text;html=1;align=left;verticalAlign=middle;resizable=0;points=[];autosize=1;strokeColor=none;fillColor=none;fontFamily=Helvetica;fontSize=11;fontColor=default;labelBackgroundColor=default;" vertex="1" parent="9lHl1m840VJ-pq4PB7hQ-49">
          <mxGeometry x="10" y="35" width="140" height="40" as="geometry" />
        </mxCell>
        <mxCell id="9lHl1m840VJ-pq4PB7hQ-61" style="edgeStyle=orthogonalEdgeStyle;shape=connector;rounded=0;orthogonalLoop=1;jettySize=auto;html=1;exitX=1;exitY=0.5;exitDx=0;exitDy=0;entryX=-0.037;entryY=0.443;entryDx=0;entryDy=0;entryPerimeter=0;strokeColor=default;align=center;verticalAlign=middle;fontFamily=Helvetica;fontSize=11;fontColor=default;labelBackgroundColor=default;endArrow=none;endFill=0;" edge="1" parent="WIyWlLk6GJQsqaUBKTNV-1" source="9lHl1m840VJ-pq4PB7hQ-49" target="9lHl1m840VJ-pq4PB7hQ-37">
          <mxGeometry relative="1" as="geometry" />
        </mxCell>
      </root>
    </mxGraphModel>
  </diagram>
</mxfile>
